<?xml version="1.0" encoding="UTF-8" standalone="no"?>
<!-- Created with Inkscape (http://www.inkscape.org/) -->

<svg
   xmlns:dc="http://purl.org/dc/elements/1.1/"
   xmlns:cc="http://creativecommons.org/ns#"
   xmlns:rdf="http://www.w3.org/1999/02/22-rdf-syntax-ns#"
   xmlns:svg="http://www.w3.org/2000/svg"
   xmlns="http://www.w3.org/2000/svg"
   xmlns:sodipodi="http://sodipodi.sourceforge.net/DTD/sodipodi-0.dtd"
   xmlns:inkscape="http://www.inkscape.org/namespaces/inkscape"
   width="150mm"
   height="150mm"
   viewBox="0 0 531.496 531.49606"
   id="svg2"
   version="1.1"
   inkscape:version="0.91 r"
   sodipodi:docname="icon.svg">
  <defs
     id="defs4">
    <inkscape:perspective
       sodipodi:type="inkscape:persp3d"
       inkscape:vp_x="-77.142858 : 523.32398 : 1"
       inkscape:vp_y="0 : 1000 : 0"
       inkscape:vp_z="224.0945 : 634.75253 : 1"
       inkscape:persp3d-origin="497.76153 : 402.21598 : 1"
       id="perspective4144" />
  </defs>
  <sodipodi:namedview
     id="base"
     pagecolor="#ffffff"
     bordercolor="#666666"
     borderopacity="1.0"
     inkscape:pageopacity="0.0"
     inkscape:pageshadow="2"
     inkscape:zoom="0.7"
     inkscape:cx="304.52793"
     inkscape:cy="613.13323"
     inkscape:document-units="px"
     inkscape:current-layer="layer1"
     showgrid="false"
     inkscape:window-width="956"
     inkscape:window-height="1036"
     inkscape:window-x="960"
     inkscape:window-y="20"
     inkscape:window-maximized="0" />
  <metadata
     id="metadata7">
    <rdf:RDF>
      <cc:Work
         rdf:about="">
        <dc:format>image/svg+xml</dc:format>
        <dc:type
           rdf:resource="http://purl.org/dc/dcmitype/StillImage" />
        <dc:title></dc:title>
      </cc:Work>
    </rdf:RDF>
  </metadata>
  <g
     inkscape:label="Layer 1"
     inkscape:groupmode="layer"
     id="layer1"
     transform="translate(0,-520.86615)">
    <g
       id="g3338"
       clip-path="none"
       transform="translate(-124.28572,278.57143)">
      <path
         sodipodi:nodetypes="cccsscccccccccccccccssscsssscccccsscsccccccccccccccccccc"
         inkscape:connector-curvature="0"
         d="m 392.57092,301.96443 c -6.49704,-0.70394 -11.7294,0.80401 -18.11899,1.76234 -7.60843,0.0645 -17.68547,4.28947 -17.68547,4.28947 -12.90354,6.36648 -33.01215,17.24478 26.1294,-16.03861 1.02358,-0.57605 -1.97486,1.27379 -2.92943,1.95815 -2.39338,1.7159 -3.54826,2.76577 -5.80912,4.67045 -8.48792,7.2682 -17.11677,14.3414 -26.00171,21.11824 -9.62954,7.09946 -19.15112,14.34365 -28.88101,21.30596 -8.5346,5.79903 -16.15365,12.83251 -23.45566,20.09115 -8.85996,8.68502 -17.13542,17.87234 -24.99532,27.46263 -8.15268,10.69998 -16.28952,21.42155 -24.14841,32.34233 -6.4404,8.45056 -12.60868,17.00304 -17.1433,26.63527 -4.81004,12.04054 -5.06309,25.16809 -5.54727,37.94751 -0.85153,16.34579 0.87903,32.56448 4.08188,48.56467 3.1296,13.50344 7.02571,26.75287 12.9385,39.30503 4.07331,8.25858 10.04153,15.23523 16.27844,21.91078 4.99875,5.40876 6.7065,7.59745 12.7213,11.78804 6.39472,5.36236 11.32253,5.42895 19.55866,6.19372 15.65549,-0.33658 37.28473,-0.0175 52.23522,-4.28893 16.51132,-4.62451 31.89064,-11.01882 47.65709,-17.72753 6.20315,-2.42929 8.948,-0.15773 14.73246,-3.4157 1.55774,-0.87737 6.24312,-3.48727 4.69569,-2.59183 -10.45987,6.05274 -38.1576,19.09284 -27.68383,13.06419 13.10168,-7.54126 26.2117,-9.17515 39.31755,-16.70915 -10.78709,6.20986 -43.24595,18.7739 -32.36127,12.73674 13.09541,-7.26334 -6.21829,2.14411 6.85127,-5.16564 0.98476,-0.55078 46.23415,-20.58772 47.24955,-21.07973 0.88578,-0.42921 0.739,2.33285 -0.13363,2.78819 -111.3048,58.07976 -53.82823,24.61498 -40.54893,16.16518 l 2.11846,-1.36674 39.15775,-15.60919 0,0 -2.0083,1.78083 c -14.08837,8.33907 -18.38315,10.88922 -40.80033,23.76532 -1.77436,1.01917 -7.29501,3.7 -5.53085,2.66328 12.40066,-7.28734 83.38067,-48.17337 -6.45846,3.62551 10.64965,-6.17198 42.66185,-24.57744 31.94894,-18.51594 -20.38873,11.53621 -40.15373,24.6587 -61.88472,33.67697 -15.79029,6.41905 -31.90759,11.95032 -48.32855,16.54241 -15.49357,4.30227 -31.3486,9.02754 -47.58731,8.37553 -8.74734,-1.4198 -16.38901,-4.53698 -23.26056,-10.25243 -6.20119,-4.39375 -12.21123,-9.1267 -17.31943,-14.78711 -6.43899,-7.07081 -12.48253,-14.52562 -16.54475,-23.26595 -5.82133,-12.97884 -9.63818,-26.5867 -12.82049,-40.43653 -3.41326,-16.23112 -5.21,-32.71485 -4.64971,-49.3302 0.25928,-13.08158 0.13016,-26.5103 4.25259,-39.07425 4.12452,-10.14138 10.14349,-19.05932 17.02455,-27.55597 8.0115,-10.94796 16.20671,-21.74211 24.27992,-32.641 7.71194,-9.58842 15.51607,-19.0498 24.36459,-27.6345 7.24345,-7.45046 14.76578,-16.21154 23.25431,-22.23407 8.48202,-7.91942 19.43969,-16.35891 29.21394,-23.39772 8.64694,-6.66595 20.42232,-15.87611 27.20011,-20.22602 17.09089,-14.02221 31.80852,-21.87228 51.37961,-28.86212 5.99866,-1.8583 12.13981,-3.32354 18.38374,-4.05922 6.6192,-0.92186 13.22479,-1.24261 19.90896,-1.18253 z"
         id="path4370"
         style="fill:#000000;fill-opacity:1" />
      <path
         sodipodi:nodetypes="cccccccccscccccsscccccccccssccccccccccccccc"
         inkscape:connector-curvature="0"
         d="m 372.89045,396.37065 c 9.9002,-3.43774 19.39398,-7.87847 29.06056,-11.90703 16.109,-6.65507 32.63972,-12.19553 49.01265,-18.14627 14.29516,-5.40406 28.82595,-10.17122 43.15292,-15.47476 8.42321,-3.51204 13.74861,-4.2871 22.63189,-3.48045 8.78896,1.86735 14.57892,8.97109 20.18173,15.4538 6.92808,9.82815 13.64207,19.80919 20.18255,29.89919 7.33007,10.00865 12.6815,21.18043 17.10446,32.71941 4.91297,14.39685 8.30827,29.32483 10.61225,44.35237 0.82589,8.16595 2.21754,16.38485 1.73368,24.62458 -0.21446,3.6522 -1.06622,8.93556 -1.58741,12.51621 -2.5866,15.91766 -7.3252,31.36645 -12.08024,46.74055 -5.13291,15.15726 -11.88965,29.67072 -20.02342,43.43146 -9.81992,15.38485 -22.76651,28.54284 -35.44033,41.58269 -12.27568,12.75492 -25.25717,24.70227 -39.65478,35.00991 -2.09645,1.31308 -4.14395,2.70777 -6.28935,3.93923 -13.84746,7.94843 -27.6769,15.93322 -41.68373,23.59731 -9.1768,5.02125 -20.40203,8.21685 -30.21398,11.88599 -15.53369,5.80615 -31.20137,11.17832 -47.02106,16.13666 -12.12043,3.67658 -24.23389,7.36477 -36.608,10.0954 -4.38416,1.30082 -8.80671,2.44524 -13.25487,3.50088 l 33.19621,-25.33959 0,0 c 4.33062,-1.06108 8.64287,-2.19245 12.98156,-3.22082 12.0946,-2.81513 23.97276,-6.44792 35.88091,-9.9534 15.7739,-4.92803 31.33175,-10.48553 46.81555,-16.25941 7.70785,-2.88727 15.45504,-5.69834 22.97872,-9.04879 2.38224,-1.06086 9.28541,-4.72133 7.07752,-3.33363 -7.10796,4.46751 -42.97954,25.14083 -21.85158,12.9494 14.82453,-9.99355 28.23751,-21.67111 40.61978,-34.57959 12.54316,-12.67583 25.04168,-25.74608 35.19087,-40.43872 8.23189,-13.54089 15.3207,-27.72179 20.68753,-42.66177 4.65829,-15.08873 9.31365,-30.25203 11.79678,-45.88219 1.67088,-12.19846 2.58036,-23.89485 0.53411,-36.17445 -2.04091,-14.78568 -5.03362,-29.49388 -10.18858,-43.53915 -4.38627,-11.26756 -9.98783,-21.93195 -17.00726,-31.80215 -6.39748,-9.92283 -12.69658,-19.94713 -19.8588,-29.3411 -5.271,-5.67993 -5.94227,-8.40807 -14.16363,-8.97063 -7.37139,-0.2628 -18.46537,-0.60481 -25.31687,2.06844 -14.22601,4.82085 -28.92678,8.73046 -43.02697,13.91262 -16.46845,5.88082 -33.0023,11.62132 -49.09269,18.49451 -10.14303,4.37367 -20.15263,9.38286 -30.86052,12.2286 z"
         id="path4372"
         style="fill:#000000;fill-opacity:1" />
      <ellipse
         ry="21.428572"
         rx="25.714285"
         cy="536.64795"
         cx="302.85715"
         id="path4374"
         style="fill:#000000;fill-opacity:1" />
      <ellipse
         ry="20"
         rx="24.285715"
         cy="489.50513"
         cx="467.14285"
         id="path4376"
         style="fill:#000000;fill-opacity:1" />
    </g>
  </g>
</svg>
